<?xml version="1.0" encoding="utf-8"?>
<!-- Generator: Adobe Illustrator 17.1.0, SVG Export Plug-In . SVG Version: 6.00 Build 0)  -->
<!DOCTYPE svg PUBLIC "-//W3C//DTD SVG 1.1//EN" "http://www.w3.org/Graphics/SVG/1.1/DTD/svg11.dtd">
<svg version="1.1" id="Layer_1" xmlns="http://www.w3.org/2000/svg" xmlns:xlink="http://www.w3.org/1999/xlink" x="0px" y="0px"
	 width="190px" height="20px" viewBox="0 0 190 20" enable-background="new 0 0 190 20" xml:space="preserve">
<path fill="#FFFFFF" d="M12,19.9H9.5L5.1,4H0V0.1h8.5l4.2,17.8L12,19.9 M0,19.9V16h2V4.5h2.7l1,3.7v8h1.5V20L0,19.9L0,19.9z M16.4,4
	l-3.5,12.8L11.2,10l2.4-10h7.9v3.9L16.4,4L16.4,4z M14.4,19.9V16h1.5V8.1l1-3.7h2.7V16h2v3.8L14.4,19.9L14.4,19.9z"/>
<path fill="#FFFFFF" d="M29.7,16h1.7v3.9H23V16h2.3l3.2-11.6h2.9l0.5,2.2L29.7,16 M32.9,19.9V16h1.6l-0.4-1.8h-3.3l0.8-3.9h1.6
	l-1.4-6.4h-5.4V0h11.1v3.9h-1.8L39.6,16h1.9v3.8L32.9,19.9L32.9,19.9z"/>
<path fill="#FFFFFF" d="M42.7,19.9V16h2V4h-2V0.1h6.6V16h2v3.9H42.7 M60.1,19.9h-6.7v-7.4h-3.5V9h3.5V4h-3.5V0.1h4.7l4,3.9v4.5
	l-2.1,2.1l2.1,2.1v3.5h1.6V19.9z"/>
<path fill="#FFFFFF" d="M68.2,16H70v3.9h-8.5V16h2.3L67,4.4h2.9l0.5,2.2L68.2,16 M71.3,19.9V16H73l-0.4-1.8h-3.3l0.8-3.9h1.6
	l-1.4-6.4H65V0h11v3.9h-1.8l3.7,12h1.9v3.9L71.3,19.9L71.3,19.9z"/>
<path fill="#FFFFFF" d="M91.1,6.7V4h-8.6v2.8h-3.1V0.1h14.9v6.6H91.1 M82.5,19.9V16h2V4.5h4.6v11.6h2v3.8H82.5z"/>
<path fill="#FFFFFF" d="M95.8,19.9V16h2V4h-2V0.1h8.6V4h-2v12.1h2v3.8H95.8 M103,8h4.1V12H103V8z M105.6,19.9V16h2V4h-2V0.1h8.6V4
	h-2v12.1h2v3.8H105.6z"/>
<path fill="#FFFFFF" d="M120,19.9l-4-3.9V4l4-3.9h3.5V4h-2.2v12.1h2.2v3.8L120,19.9 M127.6,19.9h-3.5V16h2.2V4h-2.2V0.1h3.5l4,3.9
	v12.1L127.6,19.9z"/>
<path fill="#FFFFFF" d="M145,19.9L137.3,4h-4V0.1h6.6l7.7,15.9h3.4v3.9H145 M133.3,19.9V16h1.5V4.5h2.1l2.5,5v6.6h1.5v3.8H133.3z
	 M151,4h-1.4v11.6H148l-3-6.2V4h-1.5V0.1h7.4L151,4L151,4z"/>
<rect x="152.8" y="16" fill="#FFFFFF" width="4.6" height="3.9"/>
<path fill="#FFFFFF" d="M169.4,19.9h-2.9V16h1.7v-4.8h-5.4l-3.6-3.5V3.6l3.6-3.6h2.9v3.9h-1.5v3.7h6l3.1,3.1V16L169.4,19.9
	 M164.6,19.9l-1.5-2.1v2.1h-4v-7.4h4v3.6h2.7V20L164.6,19.9L164.6,19.9z M169.2,6.1V4h-2.8V0.1h1.5l1.5,2.1V0.1h4v6.1H169.2z"/>
<path fill="#FFFFFF" d="M175.1,19.9V16h2V4h-2V0.1h6.6v19.8H175.1 M185.7,6.7V4h-3.5V0.1h7.8v6.6H185.7z M182.3,8h4.7V12h-4.7V8z
	 M182.3,19.9V16h3.5v-2.8h4.2v6.7L182.3,19.9L182.3,19.9z"/>
</svg>
