<?xml version="1.0" encoding="UTF-8"?><!DOCTYPE svg PUBLIC "-//W3C//DTD SVG 1.1//EN" "http://www.w3.org/Graphics/SVG/1.1/DTD/svg11.dtd"><svg xmlns="http://www.w3.org/2000/svg" xmlns:xlink="http://www.w3.org/1999/xlink" xmlns:cc="http://creativecommons.org/ns#" xmlns:dc="http://purl.org/dc/elements/1.1/" xmlns:inkscape="http://www.inkscape.org/namespaces/inkscape" xmlns:rdf="http://www.w3.org/1999/02/22-rdf-syntax-ns#" xmlns:sodipodi="http://sodipodi.sourceforge.net/DTD/sodipodi-0.dtd" xmlns:svg="http://www.w3.org/2000/svg"><symbol id="arrowRight" viewBox="0 0 16.9 14">
<path d="M7.7,0.6c-0.8,0.8-0.8,2,0,2.8L9.2,5H2C0.9,5,0,5.9,0,7s0.9,2,2,2h7.2l-1.5,1.6c-0.8,0.8-0.8,2,0,2.8
	s2,0.8,2.8,0L16.9,7l-6.4-6.4C9.7-0.2,8.4-0.2,7.7,0.6z"/>
</symbol><symbol id="barGraph" viewBox="0 0 96 96"><path d="M16,52C9.373,52,4,57.373,4,64v16c0,6.627,5.373,12,12,12s12-5.373,12-12V64C28,57.373,22.627,52,16,52z M20,80  c0,2.209-1.791,4-4,4s-4-1.791-4-4V64c0-2.209,1.791-4,4-4s4,1.791,4,4V80z"/><path d="M48,4c-6.627,0-12,5.373-12,12v64c0,6.627,5.373,12,12,12c6.627,0,12-5.373,12-12V16C60,9.373,54.627,4,48,4z M52,80  c0,2.209-1.791,4-4,4s-4-1.791-4-4V16c0-2.209,1.791-4,4-4s4,1.791,4,4V80z"/><path d="M80,28c-6.627,0-12,5.373-12,12v40c0,6.627,5.373,12,12,12s12-5.373,12-12V40C92,33.373,86.627,28,80,28z M84,80  c0,2.209-1.791,4-4,4s-4-1.791-4-4V40c0-2.209,1.791-4,4-4s4,1.791,4,4V80z"/></symbol><symbol id="clock" viewBox="5 -5 18 18">
<path fill="#999999" d="M14-5C9.1-5,5-0.9,5,4s4.1,9,9,9s9-4.1,9-9S18.9-5,14-5z M14,11.4c-4.1,0-7.4-3.3-7.4-7.4S9.8-3.4,14-3.4
	s7.4,3.3,7.4,7.4S18.1,11.4,14,11.4z"/>
<path fill="#999999" d="M14.8,3.7v-4.6c0-0.4-0.4-0.8-0.8-0.8s-0.8,0.4-0.8,0.8V4l0,0c0,0.1,0,0.1,0,0.2c0,0,0,0,0,0.1v0.1v0.1
	c0,0,0,0,0,0.1l0.1,0.1L15.6,7c0.3,0.3,0.8,0.3,1.2,0c0.3-0.3,0.3-0.8,0-1.2L14.8,3.7z"/>
</symbol><symbol id="facebook" viewBox="0 0 512 512"><g id="g5991"><rect height="512" id="rect2987" rx="64" ry="64" style="fill:#3b5998;fill-opacity:1;fill-rule:nonzero;stroke:none" width="512" x="0" y="0"/><path d="M 286.96783,455.99972 V 273.53753 h 61.244 l 9.1699,-71.10266 h -70.41246 v -45.39493 c 0,-20.58828 5.72066,-34.61942 35.23496,-34.61942 l 37.6554,-0.0112 V 58.807915 c -6.5097,-0.87381 -28.8571,-2.80794 -54.8675,-2.80794 -54.28803,0 -91.44995,33.14585 -91.44995,93.998125 v 52.43708 h -61.40181 v 71.10266 h 61.40039 v 182.46219 h 73.42707 z" id="f_1_" style="fill:#ffffff"/></g></symbol><symbol id="menuArrowLeft" viewBox="0 0 9 14">
<path fill="#FFFFFF" d="M0.3,7.4l5.2,5.2c0.5,0.5,1.3,0.5,1.7,0l0.4-0.4c0.5-0.5,0.5-1.2,0-1.7l-4-4l4-4c0.5-0.5,0.5-1.2,0-1.7
	L7.2,0.4C6.8-0.1,6-0.1,5.5,0.4L0.3,5.6C0.1,5.9,0,6.2,0,6.6C0,6.8,0.1,7.1,0.3,7.4z"/>
</symbol><symbol id="menuArrowRight" viewBox="0 0 8 13">
<path fill="#FFFFFF" d="M7.7,5.6L2.5,0.4C2-0.1,1.2-0.1,0.8,0.4L0.4,0.8c-0.5,0.5-0.5,1.2,0,1.7l4,4l-4,4c-0.5,0.5-0.5,1.2,0,1.7
	l0.4,0.4c0.5,0.5,1.3,0.5,1.7,0l5.2-5.2C7.9,7.1,8,6.8,8,6.4C8,6.2,7.9,5.9,7.7,5.6z"/>
</symbol><symbol id="play" viewBox="0 0 48 48"><path d="M-838-2232H562v3600H-838z" fill="none"/><path d="M16 10v28l22-14z"/><path d="M0 0h48v48H0z" fill="none"/></symbol><symbol id="playCircle" viewBox="0 0 34 34"><g><path d="M17.078,0.25c-9.389,0-17,7.611-17,17s7.611,17,17,17c9.389,0,17-7.611,17-17S26.467,0.25,17.078,0.25z    M17.078,31.25c-7.732,0-14-6.268-14-14c0-7.732,6.268-14,14-14s14,6.268,14,14C31.078,24.982,24.81,31.25,17.078,31.25z"/><polygon points="14,23.963 23,17.25 14,10.537  "/></g></symbol><symbol id="star" viewBox="-271.3 365.8 36.5 34.8">
<polygon points="-253,365.8 -247.4,377.2 -234.7,379.1 -243.9,388 -241.7,400.5 -253,394.6 -264.3,400.5 -262.1,388 -271.3,379.1 
	-258.6,377.2 "/>
</symbol><symbol id="starEmpty" viewBox="0 0 67 63"><path d="M33,10.822l5.797,11.746l1.163,2.357l2.602,0.378l12.963,1.884l-9.38,9.143l-1.882,1.835l0.444,2.591  l2.214,12.91L35.327,47.57L33,46.348l-2.327,1.223l-11.594,6.096l2.214-12.91l0.444-2.591l-1.882-1.835l-9.38-9.143l12.962-1.884  l2.602-0.378l1.163-2.357L33,10.822 M33-0.475L22.719,20.355L-0.27,23.696L16.365,39.91l-3.927,22.896L33,51.996l20.562,10.811  L49.635,39.91L66.27,23.696L43.28,20.355L33-0.475L33-0.475z"/></symbol><symbol id="starHalf" viewBox="0 0 67 63"><path d="M66.27,23.696L43.28,20.355L33-0.475L22.719,20.355L-0.27,23.696L16.365,39.91l-3.927,22.896L33,51.996  l20.562,10.811L49.635,39.91L66.27,23.696z M35.327,47.57L33,46.348V10.822l5.797,11.746l1.163,2.357l2.602,0.378l12.963,1.884  l-9.38,9.143l-1.882,1.835l0.444,2.591l2.214,12.91L35.327,47.57z"/></symbol><symbol id="twitter" viewBox="0 0 512 512"><g id="g3763"><rect height="512" id="rect2987" rx="64" ry="64" style="fill:#00abf1;fill-opacity:1;fill-rule:nonzero;stroke:none" width="512" x="0" y="0"/><g id="layer1_2_" transform="matrix(1.418485,0,0,1.418485,-507.62367,-651.3318)"><path d="m 679.333,552.19 c -10.375,4.604 -21.521,7.711 -33.224,9.111 11.939,-7.16 21.114,-18.501 25.436,-32.004 -11.178,6.63 -23.563,11.439 -36.744,14.035 -10.547,-11.246 -25.588,-18.269 -42.223,-18.269 -31.953,0 -57.859,25.906 -57.859,57.855 0,4.533 0.513,8.946 1.501,13.186 -48.085,-2.419 -90.71,-25.446 -119.245,-60.454 -4.981,8.545 -7.833,18.48 -7.833,29.089 0,20.072 10.21,37.777 25.735,48.152 -9.479,-0.302 -18.398,-2.902 -26.204,-7.234 -0.003,0.238 -0.003,0.482 -0.003,0.726 0,28.029 19.944,51.41 46.407,56.734 -4.855,1.315 -9.968,2.027 -15.238,2.027 -3.733,0 -7.354,-0.373 -10.883,-1.041 7.36,22.98 28.728,39.709 54.039,40.176 -19.795,15.52 -44.742,24.77 -71.854,24.77 -4.665,0 -9.27,-0.275 -13.799,-0.816 25.609,16.422 56.018,26.001 88.688,26.001 106.412,0 164.606,-88.156 164.606,-164.606 0,-2.514 -0.058,-5.007 -0.165,-7.49 11.295,-8.159 21.11,-18.344 28.862,-29.948 l 0,0 z" id="path5_1_" style="fill:#ffffff"/></g></g></symbol></svg>